SplineFontDB: 3.0
FontName: kalt
FullName: kalt
FamilyName: kalt
Weight: Medium
Copyright: Created by Matthew Grimm with FontForge 2.0
UComments: "2012-10-5: Created." 
Version: 001.000
ItalicAngle: 0
UnderlinePosition: -100
UnderlineWidth: 50
Ascent: 800
Descent: 200
LayerCount: 2
Layer: 0 0 "Back"  1
Layer: 1 0 "Fore"  0
XUID: [1021 473 1144915233 14251123]
FSType: 0
OS2Version: 0
OS2_WeightWidthSlopeOnly: 0
OS2_UseTypoMetrics: 1
CreationTime: 1349461760
ModificationTime: 1363463248
OS2TypoAscent: 0
OS2TypoAOffset: 1
OS2TypoDescent: 0
OS2TypoDOffset: 1
OS2TypoLinegap: 90
OS2WinAscent: 0
OS2WinAOffset: 1
OS2WinDescent: 0
OS2WinDOffset: 1
HheadAscent: 0
HheadAOffset: 1
HheadDescent: 0
HheadDOffset: 1
MarkAttachClasses: 1
DEI: 91125
Encoding: ISO8859-1
UnicodeInterp: none
NameList: Adobe Glyph List
DisplaySize: -24
AntiAlias: 1
FitToEm: 1
WinInfo: 64 16 4
BeginPrivate: 0
EndPrivate
BeginChars: 256 29

StartChar: a
Encoding: 97 97 0
Width: 468
VWidth: 0
Flags: W
HStem: 0 21G<388.5 412.5> 212.894 99.375<156.792 311.115> 480 20G<198.5 237>
VStem: 24 99.6934<115.115 183.775> 323.85 100.15<298.706 370.836>
LayerCount: 2
Fore
SplineSet
230 500 m 0
 244 500 259 498 274 496 c 0
 312 488 351 469 380 435 c 0
 407 403 422 358 423 305 c 0
 423 304 424 302 424 300 c 0
 424 151 l 1
 424 134 l 1
 446 65 l 2
 447 61 448 54 448 49 c 0
 448 22 426 0 399 0 c 0
 378 0 356.983 15.2158 350.975 34.5811 c 2
 348.412 42.4873 l 1
 312.537 18.0166 270.252 5.08008 227.756 1.5498 c 0
 182.148 -2.24023 135.604 4.33301 95.6309 27.5498 c 0
 56.9414 50.0205 26.1396 93.8057 24.1934 145.55 c 0
 24.0869 146.758 24 148.724 24 149.938 c 0
 24 150.149 24.0029 150.494 24.0059 150.706 c 0
 24.0049 150.818 24.0039 151.002 24.0039 151.115 c 0
 24.0039 152.212 24.0752 153.988 24.1621 155.081 c 0
 25.9072 204.16 56.4434 243.803 92.3496 268.612 c 0
 129.328 294.162 173.997 308.482 219.662 312.269 c 0
 254.586 315.164 290.634 311.9 323.85 298.706 c 1
 323.85 299.862 l 2
 323.85 336.811 314.638 357.713 303.1 371.487 c 0
 291.562 385.261 275.75 393.66 255.131 397.55 c 0
 213.893 405.33 156.562 386.431 134.006 363.987 c 0
 125.906 355.688 109.922 348.954 98.3262 348.954 c 0
 70.8057 348.954 48.4697 371.289 48.4697 398.811 c 0
 48.4697 410.478 55.2764 426.531 63.6621 434.644 c 0
 106.244 477.012 167 500 230 500 c 0
238.787 213.425 m 0
 235.205 213.373 231.574 213.197 227.912 212.894 c 0
 198.611 210.464 168.283 199.91 149.037 186.612 c 0
 129.791 173.314 123.693 161.743 123.693 150.706 c 0
 123.693 130.113 129.513 123.185 145.725 113.769 c 0
 161.937 104.353 190.302 98.498 219.506 100.925 c 0
 248.71 103.352 277.979 113.771 296.412 127.612 c 0
 312.941 140.023 321.005 151.9 322.381 169.05 c 1
 319.381 184.685 311.842 192.055 300.1 199.519 c 0
 286.451 208.194 263.858 213.791 238.787 213.425 c 0
EndSplineSet
Validated: 33
EndChar

StartChar: e
Encoding: 101 101 1
Width: 475
VWidth: 0
Flags: W
HStem: 199.456 101.094<138.8 332.55> 398.925 101.062<174.93 296.554>
VStem: 36.4873 102.25<140.371 199.456 300.55 360.689>
LayerCount: 2
Fore
SplineSet
235.675 499.987 m 0
 335.852 499.987 434.117 413.983 435.019 277.612 c 0
 435.028 277.432 435.042 277.137 435.05 276.956 c 2
 435.675 251.206 l 2
 435.683 250.873 435.689 250.331 435.689 249.998 c 0
 435.689 222.099 413.047 199.456 385.147 199.456 c 0
 385.146 199.456 385.145 199.456 385.144 199.456 c 2
 138.737 199.456 l 1
 145.24 141.936 174.646 116.181 207.019 105.612 c 0
 243.723 93.6289 286.062 104.321 311.644 141.3 c 0
 319.902 153.932 338.854 164.184 353.946 164.184 c 0
 381.846 164.184 404.488 141.541 404.488 113.643 c 0
 404.488 104.526 400.12 91.1572 394.737 83.7998 c 0
 343.861 10.2539 253.007 -15.708 175.644 9.5498 c 0
 99.543 34.3955 38.4668 111.958 36.4873 218.987 c 0
 36.3799 220.208 36.293 222.193 36.293 223.419 c 0
 36.293 223.653 36.2959 224.034 36.2998 224.269 c 2
 36.2998 238.519 l 2
 35.582 241.621 35 246.725 35 249.909 c 0
 35 253.094 35.582 258.197 36.2998 261.3 c 2
 36.2998 275.737 l 2
 36.2979 275.899 36.2969 276.162 36.2969 276.324 c 0
 36.2969 277.189 36.3398 278.593 36.3936 279.456 c 0
 38.1689 414.752 135.953 499.987 235.675 499.987 c 0
235.675 398.925 m 0
 192.021 398.925 146.955 374.959 138.8 300.55 c 1
 332.55 300.55 l 1
 324.395 374.959 279.328 398.925 235.675 398.925 c 0
EndSplineSet
Validated: 33
EndChar

StartChar: c
Encoding: 99 99 2
Width: 455
VWidth: 0
Flags: W
VStem: 40.0039 100.938<148.692 355.297>
LayerCount: 2
Fore
SplineSet
245.129 501.026 m 0
 300.562 501.154 357.025 479.349 400.691 435.683 c 0
 408.854 427.522 415.479 411.532 415.479 399.99 c 0
 415.479 372.131 392.868 349.521 365.009 349.521 c 0
 353.467 349.521 337.477 356.146 329.316 364.308 c 0
 292.83 400.794 245.51 407.785 208.066 393.214 c 0
 170.623 378.643 140.447 345.539 140.941 276.589 c 0
 140.941 276.541 140.941 276.465 140.941 276.417 c 0
 140.941 276.369 140.941 276.293 140.941 276.245 c 2
 140.941 225.151 l 2
 140.941 225.104 140.941 225.027 140.941 224.979 c 0
 140.941 224.932 140.941 224.855 140.941 224.808 c 0
 139.982 90.0176 280.545 71.498 324.629 130.276 c 0
 332.986 141.42 351.074 150.464 365.004 150.464 c 0
 392.862 150.464 415.473 127.854 415.473 99.9951 c 0
 415.473 90.709 410.951 77.1426 405.379 69.7139 c 0
 300.373 -70.293 43.1377 11.4697 40.1914 220.12 c 0
 40.0859 221.33 40 223.298 40 224.513 c 0
 40 224.689 40.002 224.976 40.0039 225.151 c 2
 40.0039 225.495 l 1
 40.0039 276.245 l 2
 40.0039 276.254 40.0039 276.269 40.0039 276.277 c 0
 40.0039 277.374 40.0742 279.151 40.1602 280.245 c 0
 41.0537 381.406 97.416 458.425 171.473 487.245 c 0
 194.951 496.383 219.933 500.969 245.129 501.026 c 0
EndSplineSet
Validated: 33
EndChar

StartChar: g
Encoding: 103 103 3
Width: 430
VWidth: 0
Flags: W
HStem: -203.513 100<127.049 303.746> -28.5127 100.005<150.967 303.06> 99.9873 100<149.538 281.64> 399.987 100<149.736 281.747>
VStem: 15 100<-87.5425 -43.7748 234.462 365.43> 315 100<-87.5425 -44.4671 234.59 366.711>
LayerCount: 2
Fore
SplineSet
366.188 500.8 m 0
 393.636 500.646 415.914 478.244 415.914 450.795 c 0
 415.914 446.121 414.665 438.745 413.126 434.331 c 2
 400.626 396.737 l 2
 399.851 394.299 398.241 390.491 397.032 388.237 c 1
 408.893 362.209 415.688 332.354 415.688 299.987 c 0
 415.69 299.821 415.692 299.553 415.692 299.387 c 0
 415.692 298.525 415.648 297.129 415.594 296.269 c 0
 414.608 235.391 389.696 183.622 352.032 150.144 c 0
 313.598 115.979 264.299 99.9873 215.688 99.9873 c 0
 192.428 99.9873 169.028 103.775 146.719 111.331 c 1
 143.907 100.506 141.85 90.4922 141.062 87.8936 c 1
 141.889 86.1338 144.172 76.7051 147.907 69.2373 c 0
 148.688 67.6758 149.278 66.7676 150.032 65.3623 c 1
 169.947 69.3643 191.568 71.4873 215 71.4873 c 0
 215.201 71.4902 215.526 71.4922 215.726 71.4922 c 0
 216.596 71.4922 218.007 71.4482 218.876 71.3926 c 0
 274.381 70.8467 320.108 58.8135 354.938 35.9561 c 0
 390.59 12.5586 415 -25.0908 415 -66.0127 c 0
 415 -106.936 390.59 -144.554 354.938 -167.95 c 0
 319.286 -191.348 272.292 -203.513 215 -203.513 c 0
 213.786 -203.513 212.643 -203.43 211.438 -203.419 c 0
 155.79 -202.915 109.959 -190.852 75.0625 -167.95 c 0
 39.4111 -144.553 15 -106.936 15 -66.0127 c 0
 15 -31.6494 32.3398 0.305664 58.9688 23.5498 c 0
 58.7959 23.8916 58.6416 24.1729 58.4688 24.5186 c 0
 50.7285 40 40.6875 58.3203 40.6875 87.4873 c 0
 40.6875 116.654 48.9727 136.094 55.75 156.425 c 0
 57.4766 161.605 58.8896 165.266 60.5 169.769 c 1
 32.8926 203.209 15.6875 248.405 15.6875 299.987 c 0
 15.6855 300.167 15.6836 300.459 15.6836 300.64 c 0
 15.6836 301.504 15.7275 302.905 15.7822 303.769 c 0
 16.7822 364.624 41.6924 416.393 79.3438 449.862 c 0
 117.778 484.025 167.077 499.987 215.688 499.987 c 0
 251.964 499.987 288.603 491.072 320.844 472.362 c 1
 328.348 488.06 348.56 500.8 365.959 500.8 c 0
 366.021 500.8 366.125 500.8 366.188 500.8 c 0
215.688 399.987 m 0
 189.299 399.987 163.598 390.979 145.782 375.144 c 0
 127.965 359.307 115.688 337.487 115.688 299.987 c 0
 115.688 262.487 127.965 240.698 145.782 224.862 c 0
 163.598 209.025 189.299 199.987 215.688 199.987 c 0
 242.077 199.987 267.778 209.025 285.594 224.862 c 0
 303.411 240.698 315.688 262.487 315.688 299.987 c 0
 315.688 337.487 303.411 359.307 285.594 375.144 c 0
 267.778 390.979 242.077 399.987 215.688 399.987 c 0
215 -28.5127 m 0
 172.292 -28.5127 144.286 -38.2227 129.938 -47.6377 c 0
 115.59 -57.0527 115 -63.1855 115 -66.0127 c 0
 115 -68.8398 115.59 -74.9414 129.938 -84.3564 c 0
 144.286 -93.7715 172.292 -103.513 215 -103.513 c 0
 257.709 -103.513 285.715 -93.7715 300.062 -84.3564 c 0
 314.411 -74.9414 315 -68.8398 315 -66.0127 c 0
 315 -63.1855 314.411 -57.0527 300.062 -47.6377 c 0
 285.715 -38.2227 257.709 -28.5127 215 -28.5127 c 0
EndSplineSet
Validated: 1
EndChar

StartChar: i
Encoding: 105 105 4
Width: 196
VWidth: 0
Flags: W
HStem: -0.711914 21G<84.1987 111.801> 480.726 20G<97.8965 111.801> 554.952 120.096<51.7012 144.301>
VStem: 38 120<568.702 661.298> 47.9951 100.01<8.51774 491.496>
LayerCount: 2
Fore
SplineSet
158 615 m 0xf0
 158 581.952 131.144 554.952 98 554.952 c 0
 64.8633 554.952 38 581.952 38 615 c 0
 38 648.048 64.8633 675.048 98 675.048 c 0
 131.144 675.048 158 648.048 158 615 c 0xf0
97.25 500.72 m 0
 97.457 500.723 97.793 500.726 98 500.726 c 0
 125.603 500.726 148.005 478.323 148.005 450.721 c 0
 148.005 450.521 148.003 450.199 148 450 c 2
 148 50 l 2
 148.003 49.8047 148.005 49.4883 148.005 49.293 c 0
 148.005 21.6904 125.603 -0.711914 98 -0.711914 c 0
 70.3975 -0.711914 47.9951 21.6904 47.9951 49.293 c 0
 47.9951 49.4883 47.9971 49.8047 48 50 c 2
 48 450 l 2
 47.9971 450.199 47.9951 450.521 47.9951 450.721 c 0xe8
 47.9951 477.912 70.0615 500.312 97.25 500.72 c 0
EndSplineSet
Validated: 1
EndChar

StartChar: h
Encoding: 104 104 5
Width: 474
VWidth: 0
Flags: W
HStem: -0.743164 21.0312G<74.2036 101.806 374.204 401.806> 680.725 20G<87.9014 101.806>
VStem: 38 100.01<8.48649 289.226 418.531 691.495> 338 100.01<8.51774 364.964>
LayerCount: 2
Fore
SplineSet
87.2549 700.719 m 0
 87.4619 700.722 87.7979 700.725 88.0049 700.725 c 0
 115.607 700.725 138.01 678.322 138.01 650.72 c 0
 138.01 650.521 138.008 650.199 138.005 650 c 2
 138.005 418.531 l 1
 162.175 440.569 189.346 458.858 218.786 471.125 c 0
 267.21 491.302 330.467 492.397 374.911 451.656 c 0
 414.532 415.338 433.572 358.544 437.255 279.625 c 0
 437.324 278.651 437.38 277.068 437.38 276.092 c 0
 437.38 276.075 437.38 276.048 437.38 276.031 c 2
 437.38 273.844 l 2
 437.668 266.036 438.004 258.298 438.005 250.062 c 0
 438.005 250.054 438.005 250.04 438.005 250.031 c 0
 438.005 250.022 438.005 250.009 438.005 250 c 0
 438.005 249.988 438.005 249.979 438.005 249.969 c 2
 438.005 175.312 l 1
 438.005 50 l 2
 438.008 49.8047 438.01 49.4883 438.01 49.293 c 0
 438.01 21.6904 415.607 -0.711914 388.005 -0.711914 c 0
 360.402 -0.711914 338 21.6904 338 49.293 c 0
 338 49.4883 338.002 49.8047 338.005 50 c 2
 338.005 174.688 l 1
 337.411 269.594 l 1
 334.589 336.129 318.124 368.06 307.349 377.938 c 0
 295.543 388.76 283.8 389.886 257.224 378.812 c 0
 230.647 367.739 197.974 341.526 174.567 310.969 c 0
 154.087 284.23 141.47 254.374 138.63 233.375 c 1
 138.63 224.281 l 2
 138.633 224.085 138.635 223.766 138.635 223.569 c 0
 138.635 221.371 138.353 217.826 138.005 215.656 c 2
 138.005 49.9688 l 2
 138.008 49.7734 138.01 49.457 138.01 49.2617 c 0
 138.01 21.6592 115.607 -0.743164 88.0049 -0.743164 c 0
 60.4023 -0.743164 38 21.6592 38 49.2617 c 0
 38 49.457 38.002 49.7734 38.0049 49.9688 c 2
 38.0049 224.969 l 1
 38.0049 650 l 2
 38.002 650.198 38 650.521 38 650.719 c 0
 38 677.911 60.0664 700.311 87.2549 700.719 c 0
EndSplineSet
Validated: 33
EndChar

StartChar: k
Encoding: 107 107 6
Width: 450
VWidth: 0
Flags: W
HStem: -0.724609 21.7217G<66.2036 93.8062 372.192 393.806> 480.432 20G<375.494 394.325> 680.712 20G<79.9014 93.8062>
VStem: 30 100.01<8.50504 198.693 310.05 691.482>
LayerCount: 2
Fore
SplineSet
79.2549 700.706 m 0
 79.4619 700.709 79.7979 700.712 80.0049 700.712 c 0
 107.607 700.712 130.01 678.31 130.01 650.707 c 0
 130.01 650.508 130.008 650.186 130.005 649.987 c 2
 130.005 310.05 l 1
 348.349 488.706 l 2
 356.05 495.179 370.464 500.432 380.523 500.432 c 0
 408.126 500.432 430.528 478.029 430.528 450.427 c 0
 430.528 437.116 422.075 419.588 411.661 411.3 c 2
 284.13 306.956 l 1
 422.88 75.7373 l 2
 426.815 69.1797 430.01 57.6504 430.01 50.0029 c 0
 430.01 22.3994 407.607 -0.00292969 380.005 -0.00292969 c 0
 364.379 -0.00292969 345.171 10.8711 337.13 24.2686 c 2
 205.911 242.956 l 1
 136.661 186.3 l 2
 134.931 184.847 131.948 182.732 130.005 181.581 c 1
 130.005 49.9873 l 2
 130.008 49.792 130.01 49.4756 130.01 49.2803 c 0
 130.01 21.6777 107.607 -0.724609 80.0049 -0.724609 c 0
 52.4023 -0.724609 30 21.6777 30 49.2803 c 0
 30 49.4756 30.002 49.792 30.0049 49.9873 c 2
 30.0049 649.987 l 2
 30.002 650.186 30 650.508 30 650.707 c 0
 30 677.898 52.0664 700.298 79.2549 700.706 c 0
EndSplineSet
Validated: 1
EndChar

StartChar: l
Encoding: 108 108 7
Width: 220
VWidth: 0
Flags: W
HStem: 0 21G<96.2002 123.8> 680 20G<109.896 123.8>
VStem: 60 100<9.21074 690.789>
LayerCount: 2
Fore
SplineSet
109.25 699.994 m 0
 109.457 699.997 109.793 700 110 700 c 0
 137.6 700 160 677.644 160 650.098 c 0
 160 649.899 159.998 649.578 159.995 649.38 c 2
 159.995 50.6084 l 2
 159.998 50.4131 160 50.0977 160 49.9023 c 0
 160 22.3564 137.6 0 110 0 c 0
 82.4004 0 60 22.3564 60 49.9023 c 0
 60 50.0977 60.002 50.4131 60.0049 50.6084 c 2
 60.0049 649.38 l 2
 60.002 649.577 60 649.899 60 650.098 c 0
 60 677.233 82.0645 699.588 109.25 699.994 c 0
EndSplineSet
Validated: 1
EndChar

StartChar: m
Encoding: 109 109 8
Width: 593
VWidth: 0
Flags: W
HStem: -0.75 21G<89.729 117.332 489.729 517.332> 399.962 99.7002<164.086 203.53 379.254 403.53>
VStem: 53.5254 100.01<8.47965 379.262> 253.525 100.01<33.4797 373.266> 453.525 100.01<8.47965 386.33>
CounterMasks: 1 38
LayerCount: 2
Fore
SplineSet
53 500.462 m 0
 53.0176 500.462 53.0459 500.462 53.0635 500.462 c 0
 64.7031 500.462 80.7451 493.697 88.8701 485.362 c 2
 105.721 468.462 l 1
 129.801 487.262 162.021 498.662 197.971 499.662 c 0
 199.477 499.828 201.926 499.962 203.44 499.962 c 0
 203.465 499.962 203.506 499.962 203.53 499.962 c 0
 203.582 499.962 203.667 499.963 203.719 499.963 c 0
 204.955 499.963 206.959 499.873 208.19 499.762 c 0
 251.25 498.062 281.471 472.362 303.53 444.662 c 1
 325.511 472.262 355.591 497.862 398.41 499.762 c 0
 399.652 499.875 401.673 499.966 402.92 499.966 c 0
 403.088 499.966 403.361 499.964 403.53 499.962 c 0
 404.977 499.955 407.312 499.82 408.75 499.662 c 0
 455.15 498.362 495.57 480.062 520.062 450.662 c 0
 545.48 420.162 553.53 383.262 553.53 349.962 c 2
 553.53 49.9619 l 2
 553.533 49.7666 553.535 49.4502 553.535 49.2549 c 0
 553.535 21.6523 531.133 -0.75 503.53 -0.75 c 0
 475.928 -0.75 453.525 21.6523 453.525 49.2549 c 0
 453.525 49.4502 453.527 49.7666 453.53 49.9619 c 2
 453.53 349.962 l 2
 453.53 366.662 449.08 379.662 443.25 386.662 c 0
 437.42 393.662 429.92 399.962 403.53 399.962 c 1
 404.562 399.962 390 394.162 376.78 375.862 c 0
 363.8 357.762 354.602 331.562 353.53 321.662 c 1
 353.53 74.9619 l 2
 353.533 74.7666 353.535 74.4502 353.535 74.2549 c 0
 353.535 46.6523 331.133 24.25 303.53 24.25 c 0
 275.928 24.25 253.525 46.6523 253.525 74.2549 c 0
 253.525 74.4502 253.527 74.7666 253.53 74.9619 c 2
 253.53 321.662 l 1
 252.46 331.562 243.261 357.762 230.28 375.862 c 0
 217.062 394.162 202.5 399.962 203.53 399.962 c 1
 177.141 399.962 169.641 393.662 163.812 386.662 c 0
 157.98 379.662 153.53 366.662 153.53 349.962 c 2
 153.53 49.9619 l 2
 153.533 49.7666 153.535 49.4502 153.535 49.2549 c 0
 153.535 21.6523 131.133 -0.75 103.53 -0.75 c 0
 75.9277 -0.75 53.5254 21.6523 53.5254 49.2549 c 0
 53.5254 49.4502 53.5273 49.7666 53.5303 49.9619 c 2
 53.5303 349.962 l 1
 53.5303 379.262 l 1
 18.1904 414.562 l 2
 9.80469 422.695 3 438.775 3 450.457 c 0
 3 478.058 25.4004 500.46 53 500.462 c 0
EndSplineSet
Validated: 33
EndChar

StartChar: o
Encoding: 111 111 9
Width: 480
VWidth: 0
Flags: W
HStem: -0.0126953 101.25<178.426 301.042> 398.769 101.219<175.541 301.312>
VStem: 40 100<141.676 360.716> 338.781 101.219<139.464 358.326>
LayerCount: 2
Fore
SplineSet
240 499.987 m 0
 340.844 499.987 440 413.279 440 275.737 c 2
 440 224.269 l 2
 440.021 223.091 439.999 221.913 439.938 220.737 c 0
 439.938 220.674 439.907 220.612 439.906 220.55 c 0
 438.123 85.1826 339.924 -0.0126953 240 -0.0126953 c 0
 139.156 -0.0126953 40 86.7266 40 224.269 c 2
 40 275.737 l 2
 40 375 40.0479 278.083 40.0625 279.269 c 0
 40.0723 279.331 40.083 279.393 40.0938 279.456 c 0
 41.8809 414.817 140.078 499.987 240 499.987 c 0
240 398.769 m 0
 191.461 398.769 140 375.029 140 275 c 2
 140 225 l 2
 140 131 191.461 101.237 240 101.237 c 0
 288.539 101.237 338.781 130.269 338.781 224.269 c 2
 338.781 275.737 l 2
 338.781 369.737 288.539 398.769 240 398.769 c 0
EndSplineSet
Validated: 1
EndChar

StartChar: r
Encoding: 114 114 10
Width: 414
VWidth: 0
Flags: W
HStem: -0.724609 21G<85.4243 113.027> 374.996 98.085<243.725 390.007> 480.676 20G<73.7524 84.1011>
VStem: 49.2207 100.01<8.50504 174.987>
LayerCount: 2
Fore
SplineSet
72.1943 500.644 m 0
 72.6934 500.661 73.5029 500.676 74.002 500.676 c 0
 94.2002 500.676 115.552 485.052 121.663 465.8 c 2
 145.194 395.05 l 1
 163.164 417.062 184.496 437.293 210.319 453.019 c 0
 251.754 478.251 306.608 489.186 362.976 473.081 c 0
 382.991 467.359 399.236 445.819 399.236 425.002 c 0
 399.236 397.398 376.834 374.996 349.23 374.996 c 0
 345.359 374.996 339.197 375.86 335.476 376.925 c 0
 304.343 385.82 284.197 380.916 262.351 367.612 c 0
 240.504 354.309 218.824 329.887 201.163 301.269 c 0
 183.502 272.65 169.804 240.414 160.976 214.706 c 0
 156.562 201.852 153.337 190.573 151.351 182.519 c 0
 149.364 174.464 149.226 164.534 149.226 174.987 c 2
 149.226 49.9873 l 2
 149.229 49.792 149.23 49.4756 149.23 49.2803 c 0
 149.23 21.6777 126.828 -0.724609 99.2256 -0.724609 c 0
 71.623 -0.724609 49.2207 21.6777 49.2207 49.2803 c 0
 49.2207 49.4756 49.2227 49.792 49.2256 49.9873 c 2
 49.2256 174.987 l 1
 49.2256 366.8 l 1
 26.7881 434.206 l 2
 25.249 438.62 24 445.996 24 450.671 c 0
 24 477.292 45.5908 499.68 72.1943 500.644 c 0
EndSplineSet
Validated: 33
EndChar

StartChar: s
Encoding: 115 115 11
Width: 445
VWidth: 0
Flags: W
HStem: 349.9 146.85<151.202 321.5>
LayerCount: 2
Fore
SplineSet
233.052 496.75 m 0
 281.981 495.264 333.739 477.393 380.208 437.562 c 0
 390.134 429.367 398.189 412.269 398.189 399.396 c 0
 398.189 372.074 376.016 349.9 348.693 349.9 c 0
 338.289 349.9 323.539 355.517 315.771 362.438 c 0
 246.985 421.396 174.474 395.178 148.739 366.781 c 0
 135.872 352.583 135.584 347.523 140.021 339.438 c 0
 144.457 331.352 167.575 309.86 231.458 298.75 c 0
 311.325 284.86 366.316 256.352 392.739 208.188 c 0
 419.162 160.023 403.06 102.583 370.614 66.7812 c 0
 305.724 -4.82227 171.985 -28.6035 65.7705 62.4375 c 0
 55.8447 70.6328 47.7891 87.7314 47.7891 100.604 c 0
 47.7891 127.926 69.9629 150.1 97.2852 150.1 c 0
 107.689 150.1 122.439 144.483 130.208 137.562 c 0
 198.993 78.6035 271.505 104.822 297.239 133.219 c 0
 310.106 147.417 310.395 152.477 305.958 160.562 c 0
 301.521 168.648 278.403 190.14 214.521 201.25 c 0
 134.653 215.14 79.6621 243.648 53.2393 291.812 c 0
 26.8164 339.977 42.9189 397.417 75.3643 433.219 c 0
 111.865 473.496 170.143 498.66 233.052 496.75 c 0
EndSplineSet
Validated: 33
EndChar

StartChar: t
Encoding: 116 116 12
Width: 381
VWidth: 0
Flags: W
HStem: 1.71973 95.1201<237.289 304.218> 402.12 95.7598<24.1807 141 236.76 353.579>
VStem: 141 95.7598<97.3705 402.12 497.88 690.385>
LayerCount: 2
Fore
SplineSet
188.16 698.56 m 0
 188.361 698.562 188.688 698.565 188.889 698.565 c 0
 215.316 698.565 236.765 677.117 236.765 650.689 c 0
 236.765 650.499 236.763 650.19 236.76 650 c 2
 236.76 497.88 l 1
 313.88 497.88 l 2
 340.31 497.88 361.76 476.43 361.76 450 c 0
 361.76 423.57 340.31 402.12 313.88 402.12 c 2
 236.76 402.12 l 1
 236.76 125 l 2
 236.76 106.48 240.21 98.7002 241.29 96.8398 c 0
 242.28 96.7197 244.7 96.4297 247.91 96.7197 c 0
 249.78 96.8896 251.479 97.1699 254.569 97.5596 c 0
 256.11 97.7598 257.46 98.1602 262.85 98.1602 c 0
 265.55 98.1699 268.97 98.8203 278.439 95.75 c 0
 283.18 94.21 290.22 91.5498 297.939 83.7197 c 0
 305.66 75.8799 311.76 61.4199 311.76 50 c 0
 311.763 49.8252 311.764 49.542 311.764 49.3682 c 0
 311.764 22.9404 290.315 1.49219 263.888 1.49219 c 0
 262.597 1.49219 260.505 1.59375 259.22 1.71973 c 0
 258.01 1.58008 257.81 1.5 256.41 1.37988 c 0
 246.09 0.450195 230.49 -0.179688 212.16 5.53027 c 0
 193.83 11.2402 172.88 25.1904 159.79 46.5303 c 0
 146.689 67.8701 141 94.0195 141 125 c 2
 141 402.12 l 1
 63.8799 402.12 l 2
 37.4502 402.12 16 423.57 16 450 c 0
 16 476.43 37.4502 497.88 63.8799 497.88 c 2
 141 497.88 l 1
 141 650 l 2
 140.997 650.19 140.995 650.499 140.995 650.689 c 0
 140.995 676.729 162.125 698.173 188.16 698.56 c 0
EndSplineSet
Validated: 33
EndChar

StartChar: w
Encoding: 119 119 13
Width: 500
VWidth: 0
Flags: W
HStem: -0.0361328 21G<112.818 133.901 366.122 387.206> 480.02 20G<61.208 87.1973 412.73 425.155>
VStem: 375.387 99.7285<400.214 491.295>
LayerCount: 2
Fore
SplineSet
425.574 500.706 m 0
 452.921 500.452 475.115 478.051 475.115 450.703 c 0
 475.115 448.789 474.901 445.695 474.637 443.8 c 2
 424.637 43.7998 l 2
 421.629 19.6025 399.397 -0.0361328 375.014 -0.0361328 c 0
 357.23 -0.0361328 336.831 13.1064 329.48 29.2998 c 2
 250.012 204.144 l 1
 170.543 29.2998 l 2
 163.192 13.1064 142.793 -0.0361328 125.01 -0.0361328 c 0
 100.626 -0.0361328 78.3945 19.6025 75.3867 43.7998 c 2
 25.3867 443.8 l 2
 25.1729 445.507 25 448.288 25 450.008 c 0
 25 477.614 47.4053 500.02 75.0107 500.02 c 0
 99.3838 500.02 121.616 480.391 124.637 456.206 c 2
 152.699 231.737 l 1
 204.48 345.675 l 2
 211.832 361.865 232.23 375.006 250.012 375.006 c 0
 267.793 375.006 288.191 361.865 295.543 345.675 c 2
 347.324 231.737 l 1
 375.387 456.206 l 2
 378.106 480.771 400.373 500.708 425.088 500.708 c 0
 425.223 500.708 425.44 500.707 425.574 500.706 c 0
EndSplineSet
Validated: 1
EndChar

StartChar: y
Encoding: 121 121 14
Width: 420
VWidth: 0
Flags: W
HStem: -200.005 100.01<43.4631 115.562> 480.37 20G<46.022 69.8521 350.07 360.216>
LayerCount: 2
Fore
SplineSet
360.508 500.688 m 0
 387.928 500.506 410.182 478.104 410.182 450.684 c 0
 410.182 446 408.928 438.609 407.383 434.188 c 2
 259.133 -10.5625 l 2
 258.459 -13.9395 256.709 -19.2041 255.227 -22.3125 c 2
 232.383 -90.8125 l 1
 232.32 -90.7812 l 1
 217.046 -142.441 187.751 -177.475 154.164 -191.469 c 0
 120.12 -205.653 89.1123 -200 84.9453 -200 c 0
 84.75 -200.003 84.4336 -200.005 84.2383 -200.005 c 0
 56.6357 -200.005 34.2334 -177.603 34.2334 -150 c 0
 34.2334 -122.397 56.6357 -99.9951 84.2383 -99.9951 c 0
 84.4336 -99.9951 84.75 -99.9971 84.9453 -100 c 0
 105.778 -100 112.271 -100.597 115.727 -99.1562 c 0
 119.183 -97.7158 126.975 -95.9287 136.883 -61.25 c 2
 137.164 -60.2188 l 1
 137.508 -59.1875 l 1
 157.227 0 l 1
 12.5078 434.188 l 2
 11.0234 438.529 9.81836 445.777 9.81836 450.365 c 0
 9.81836 477.969 32.2207 500.37 59.8232 500.37 c 0
 79.8809 500.37 101.188 484.889 107.383 465.812 c 2
 209.945 158.125 l 1
 312.508 465.812 l 2
 318.619 485.064 339.971 500.688 360.169 500.688 c 0
 360.263 500.688 360.414 500.688 360.508 500.688 c 0
EndSplineSet
Validated: 33
EndChar

StartChar: b
Encoding: 98 98 15
Width: 484
VWidth: 0
Flags: W
HStem: 0.618164 100<182.375 306.268> 399.368 100<182.516 306.537> 680.688 20G<95.0234 108.929>
VStem: 45.1221 100.01<141.39 358.597 469.368 691.458> 344.502 100.008<139.495 358.122>
LayerCount: 2
Fore
SplineSet
94.377 700.681 m 0
 94.584 700.684 94.9199 700.688 95.127 700.688 c 0
 122.73 700.688 145.132 678.284 145.132 650.682 c 0
 145.132 650.482 145.13 650.16 145.127 649.962 c 2
 145.127 469.368 l 1
 175.576 488.738 210.197 499.368 245.127 499.368 c 0
 345.651 499.368 444.502 412.988 444.502 275.712 c 2
 444.502 224.274 l 2
 444.506 224.038 444.51 223.653 444.51 223.417 c 0
 444.51 222.688 444.479 221.504 444.439 220.774 c 0
 444.439 220.712 444.409 220.65 444.408 220.587 c 0
 442.641 85.4717 344.74 0.618164 245.127 0.618164 c 0
 201.029 0.618164 157.254 17.2432 122.002 47.4932 c 1
 117.565 34.1807 l 2
 111.369 15.1045 90.0635 -0.376953 70.0049 -0.376953 c 0
 42.4023 -0.376953 20 22.0254 20 49.6279 c 0
 20 54.2168 21.2051 61.4639 22.6895 65.8057 c 2
 45.127 133.118 l 1
 45.127 649.962 l 2
 45.124 650.16 45.1221 650.482 45.1221 650.682 c 0
 45.1221 677.873 67.1895 700.273 94.377 700.681 c 0
245.127 399.368 m 0
 196.269 399.368 145.752 369.978 145.752 275.712 c 2
 145.752 224.274 l 2
 145.752 130.01 196.269 100.618 245.127 100.618 c 0
 293.985 100.618 344.502 130.01 344.502 224.274 c 2
 344.502 275.712 l 2
 344.502 369.978 293.985 399.368 245.127 399.368 c 0
EndSplineSet
Validated: 1
EndChar

StartChar: d
Encoding: 100 100 16
Width: 479
VWidth: 0
Flags: W
HStem: 0.643555 100<172.966 297.128> 399.394 100<173.234 296.986> 680.681 20G<384.271 398.176>
VStem: 35 100<141.87 360.538> 334.37 100.01<141.405 358.633 469.394 691.451>
LayerCount: 2
Fore
SplineSet
383.625 700.675 m 0
 383.832 700.678 384.168 700.681 384.375 700.681 c 0
 411.978 700.681 434.38 678.278 434.38 650.676 c 0
 434.38 650.477 434.378 650.154 434.375 649.956 c 2
 434.375 133.112 l 1
 456.812 65.7998 l 2
 458.297 61.458 459.502 54.21 459.502 49.6211 c 0
 459.502 22.0186 437.1 -0.383789 409.497 -0.383789 c 0
 389.439 -0.383789 368.133 15.0986 361.938 34.1748 c 2
 357.5 47.5186 l 1
 322.248 17.2734 278.471 0.643555 234.375 0.643555 c 0
 133.855 0.643555 35 87.0098 35 224.269 c 2
 35 275.769 l 2
 35 276.948 35.0479 278.096 35.0625 279.269 c 0
 35.0713 279.32 35.085 279.404 35.0938 279.456 c 0
 36.8613 414.555 134.767 499.394 234.375 499.394 c 0
 269.303 499.394 303.926 488.76 334.375 469.394 c 1
 334.375 649.956 l 2
 334.372 650.154 334.37 650.477 334.37 650.676 c 0
 334.37 677.867 356.438 700.267 383.625 700.675 c 0
234.375 399.394 m 0
 185.514 399.394 135 370.01 135 275.769 c 2
 135 224.269 l 2
 135 130.027 185.514 100.644 234.375 100.644 c 0
 283.236 100.644 333.75 130.027 333.75 224.269 c 2
 333.75 275.769 l 2
 333.75 370.01 283.236 399.394 234.375 399.394 c 0
EndSplineSet
Validated: 1
EndChar

StartChar: n
Encoding: 110 110 17
Width: 485
VWidth: 0
Flags: W
HStem: -0.743164 21.0312G<81.4136 109.016 381.414 409.016> 480.688 20G<69.729 80.0845>
VStem: 45.21 100.01<8.48621 289.226> 345.21 100.01<8.51746 364.963>
LayerCount: 2
Fore
SplineSet
68.2148 500.656 m 0
 68.6992 500.673 69.4863 500.688 69.9717 500.688 c 0
 90.1973 500.688 111.558 485.035 117.652 465.75 c 2
 136.215 409.875 l 1
 162.582 435.771 192.811 457.298 225.996 471.125 c 0
 274.42 491.302 337.677 492.396 382.121 451.656 c 0
 421.742 415.337 440.782 358.544 444.465 279.625 c 0
 444.534 278.65 444.59 277.067 444.59 276.091 c 0
 444.59 276.074 444.59 276.048 444.59 276.031 c 2
 444.59 273.844 l 2
 444.879 266.005 445.215 258.238 445.215 249.969 c 0
 445.216 249.84 445.217 249.632 445.217 249.503 c 0
 445.217 247.735 445.034 244.878 444.809 243.125 c 2
 444.871 231.188 l 2
 445.062 229.575 445.216 226.949 445.216 225.325 c 0
 445.216 225.235 445.216 225.09 445.215 225 c 2
 445.215 175.312 l 1
 445.215 50 l 2
 445.218 49.8047 445.22 49.4883 445.22 49.293 c 0
 445.22 21.6895 422.817 -0.711914 395.215 -0.711914 c 0
 367.612 -0.711914 345.21 21.6895 345.21 49.293 c 0
 345.21 49.4883 345.212 49.8047 345.215 50 c 2
 345.215 174.688 l 1
 344.621 269.594 l 1
 341.799 336.129 325.334 368.06 314.559 377.938 c 0
 302.753 388.759 291.01 389.886 264.434 378.812 c 0
 237.857 367.739 205.184 341.526 181.777 310.969 c 0
 161.297 284.23 148.68 254.374 145.84 233.375 c 1
 145.84 224.281 l 2
 145.843 224.085 145.845 223.766 145.845 223.569 c 0
 145.845 221.371 145.562 217.826 145.215 215.656 c 2
 145.215 49.9688 l 2
 145.218 49.7734 145.22 49.457 145.22 49.2617 c 0
 145.22 21.6582 122.817 -0.743164 95.2148 -0.743164 c 0
 67.6123 -0.743164 45.21 21.6582 45.21 49.2617 c 0
 45.21 49.457 45.2119 49.7734 45.2148 49.9688 c 2
 45.2148 224.969 l 1
 45.2148 366.688 l 1
 22.7773 434.25 l 2
 21.2441 438.656 20 446.018 20 450.684 c 0
 20 477.314 41.6006 499.703 68.2148 500.656 c 0
EndSplineSet
Validated: 33
EndChar

StartChar: p
Encoding: 112 112 18
Width: 483
VWidth: 0
Flags: W
HStem: -201.458 21G<80.8081 108.411> -0.168945 100<182.061 305.751> 398.581 100<182.055 306.02>
VStem: 44.6045 100.01<-192.228 29.7061 140.592 357.82> 343.985 100.008<138.687 357.355>
LayerCount: 2
Fore
SplineSet
68.2354 500.644 m 0
 68.7285 500.661 69.5293 500.676 70.0225 500.676 c 0
 90.249 500.676 111.61 485.022 117.704 465.736 c 2
 122.173 452.268 l 1
 157.308 482.147 200.797 498.581 244.61 498.581 c 0
 345.13 498.581 443.985 412.215 443.985 274.956 c 2
 443.985 223.456 l 2
 443.989 223.219 443.993 222.835 443.993 222.598 c 0
 443.993 221.868 443.962 220.685 443.923 219.956 c 0
 443.922 219.893 443.893 219.831 443.892 219.768 c 0
 442.124 84.6699 344.219 -0.168945 244.61 -0.168945 c 0
 209.756 -0.168945 175.201 10.416 144.798 29.7061 c 1
 144.61 -150.794 l 2
 144.612 -150.977 144.614 -151.271 144.614 -151.453 c 0
 144.614 -179.056 122.213 -201.458 94.6094 -201.458 c 0
 67.0068 -201.458 44.6045 -179.056 44.6045 -151.453 c 0
 44.6045 -151.245 44.6074 -150.908 44.6104 -150.7 c 2
 45.1729 366.8 l 1
 22.7666 434.269 l 2
 21.2393 438.666 20 446.015 20 450.67 c 0
 20 477.312 41.6094 499.7 68.2354 500.644 c 0
244.61 398.581 m 0
 195.749 398.581 145.235 369.197 145.235 274.956 c 2
 145.235 223.456 l 2
 145.235 129.215 195.749 99.8311 244.61 99.8311 c 0
 293.472 99.8311 343.985 129.215 343.985 223.456 c 2
 343.985 274.956 l 2
 343.985 369.197 293.472 398.581 244.61 398.581 c 0
EndSplineSet
Validated: 1
EndChar

StartChar: q
Encoding: 113 113 19
Width: 485
VWidth: 0
Flags: W
HStem: -201.441 21G<375.576 403.178> -0.168945 100<177.969 302.062> 398.581 100<178.237 302.212>
VStem: 40.0029 100<141.057 359.725> 339.372 100.01<-192.211 29.9873 140.592 357.82>
LayerCount: 2
Fore
SplineSet
415.565 500.675 m 0
 442.985 500.493 465.239 478.092 465.239 450.671 c 0
 465.239 445.986 463.985 438.597 462.44 434.175 c 2
 440.003 366.831 l 1
 439.378 -150.794 l 2
 439.38 -150.971 439.382 -151.259 439.382 -151.436 c 0
 439.382 -179.039 416.979 -201.441 389.377 -201.441 c 0
 361.774 -201.441 339.372 -179.039 339.372 -151.436 c 0
 339.372 -151.225 339.375 -150.881 339.378 -150.669 c 2
 339.597 29.9873 l 1
 309.093 10.5273 274.392 -0.168945 239.378 -0.168945 c 0
 138.859 -0.168945 40.0029 86.1973 40.0029 223.456 c 2
 40.0029 274.956 l 2
 40.001 275.114 40 275.371 40 275.529 c 0
 40 276.39 40.043 277.785 40.0967 278.644 c 0
 41.8643 413.742 139.77 498.581 239.378 498.581 c 0
 283.599 498.581 327.481 481.833 362.784 451.425 c 1
 367.565 465.8 l 2
 373.677 485.051 395.028 500.676 415.227 500.676 c 0
 415.32 500.676 415.472 500.676 415.565 500.675 c 0
239.378 398.581 m 0
 190.517 398.581 140.003 369.197 140.003 274.956 c 2
 140.003 223.456 l 2
 140.003 129.215 190.517 99.8311 239.378 99.8311 c 0
 288.239 99.8311 338.753 129.215 338.753 223.456 c 2
 338.753 274.956 l 2
 338.753 369.197 288.239 398.581 239.378 398.581 c 0
EndSplineSet
Validated: 1
EndChar

StartChar: v
Encoding: 118 118 20
Width: 430
VWidth: 0
Flags: W
HStem: -0.654297 21.0078G<214.848 215.201 217.101 217.356> 479.972 20.6074G<51.2036 65.1841 355.688 379.047>
LayerCount: 2
Fore
SplineSet
66.3037 500.562 m 0
 85.1523 500.079 105.648 485.295 112.054 467.562 c 2
 215.244 192.362 l 1
 318.435 467.562 l 2
 325.16 485.452 346.132 499.972 365.244 499.972 c 0
 392.85 499.972 415.254 477.567 415.254 449.962 c 0
 415.254 444.944 413.82 437.06 412.054 432.362 c 2
 264.124 37.8623 l 1
 259.829 19.6289 241.304 2.60547 222.774 -0.137695 c 0
 221.506 -0.334961 219.436 -0.558594 218.154 -0.637695 c 0
 217.898 -0.642578 217.484 -0.646484 217.229 -0.646484 c 0
 216.974 -0.646484 216.56 -0.642578 216.304 -0.637695 c 0
 215.951 -0.646484 215.378 -0.654297 215.024 -0.654297 c 0
 214.671 -0.654297 214.098 -0.646484 213.744 -0.637695 c 0
 192.284 -0.0966797 171.005 17.3301 166.244 38.2617 c 1
 18.4346 432.362 l 2
 16.5381 437.21 15 445.369 15 450.574 c 0
 15 478.177 37.4023 500.579 65.0049 500.579 c 0
 65.3633 500.579 65.9453 500.571 66.3037 500.562 c 0
EndSplineSet
Validated: 1
EndChar

StartChar: x
Encoding: 120 120 21
Width: 460
VWidth: 0
Flags: W
HStem: -0.615234 21G<66.2041 87.0288 373.831 394.655> 480.526 20G<66.2041 87.0288 373.837 381.057>
LayerCount: 2
Fore
SplineSet
382.273 500.519 m 0
 409.098 499.762 430.868 477.368 430.868 450.533 c 0
 430.868 441.11 426.191 427.412 420.43 419.956 c 2
 292.93 249.956 l 1
 420.43 79.9561 l 2
 426.188 72.502 430.859 58.8086 430.859 49.3906 c 0
 430.859 21.7871 408.457 -0.615234 380.854 -0.615234 c 0
 366.808 -0.615234 348.697 8.60059 340.43 19.9561 c 2
 230.43 166.612 l 1
 120.43 19.9561 l 2
 112.162 8.60059 94.0518 -0.615234 80.0059 -0.615234 c 0
 52.4023 -0.615234 30 21.7871 30 49.3906 c 0
 30 58.8086 34.6729 72.502 40.4297 79.9561 c 2
 167.93 249.956 l 1
 40.4297 419.956 l 2
 34.6729 427.41 30 441.104 30 450.521 c 0
 30 478.124 52.4023 500.526 80.0059 500.526 c 0
 94.0518 500.526 112.162 491.311 120.43 479.956 c 2
 230.43 333.3 l 1
 340.43 479.956 l 2
 348.697 491.317 366.812 500.538 380.862 500.538 c 0
 381.252 500.538 381.884 500.529 382.273 500.519 c 0
EndSplineSet
Validated: 1
EndChar

StartChar: z
Encoding: 122 122 22
Width: 441
VWidth: 0
Flags: W
HStem: -0.0429688 100.01<170.712 412.194> 399.957 100.01<29.2297 270.712>
LayerCount: 2
Fore
SplineSet
372.552 500.562 m 0
 386.555 500.137 404.349 490.415 412.272 478.862 c 0
 413.006 477.79 414.112 475.998 414.742 474.862 c 0
 414.899 474.588 415.15 474.14 415.302 473.862 c 0
 415.697 473.128 416.302 471.919 416.652 471.162 c 0
 417.136 470.104 417.849 468.357 418.242 467.262 c 0
 419.954 462.631 421.344 454.863 421.344 449.926 c 0
 421.344 438.398 414.69 422.466 406.492 414.362 c 1
 170.712 99.9619 l 1
 370.712 99.9619 l 2
 370.907 99.9648 371.224 99.9668 371.419 99.9668 c 0
 399.021 99.9668 421.424 77.5645 421.424 49.9619 c 0
 421.424 22.3594 399.021 -0.0429688 371.419 -0.0429688 c 0
 371.224 -0.0429688 370.907 -0.0410156 370.712 -0.0380859 c 2
 77.5215 -0.0380859 l 2
 75.5498 -0.324219 72.3311 -0.556641 70.3379 -0.556641 c 0
 54.1396 -0.556641 34.5811 10.9209 26.6816 25.0625 c 0
 26.5244 25.3359 26.2734 25.7842 26.1221 26.0625 c 0
 25.7266 26.7959 25.1221 28.0059 24.7715 28.7617 c 0
 24.29 29.793 23.5771 31.4951 23.1816 32.5625 c 0
 21.4551 37.2119 20.0537 45.0117 20.0537 49.9727 c 0
 20.0537 61.5117 26.7188 77.4561 34.9316 85.5625 c 1
 270.712 399.962 l 1
 70.7119 399.962 l 2
 70.5166 399.959 70.2002 399.957 70.0049 399.957 c 0
 42.4023 399.957 20 422.359 20 449.962 c 0
 20 477.564 42.4023 499.967 70.0049 499.967 c 0
 70.2002 499.967 70.5166 499.965 70.7119 499.962 c 2
 363.902 499.962 l 2
 366.034 500.298 369.516 500.57 371.674 500.57 c 0
 371.916 500.57 372.31 500.566 372.552 500.562 c 0
EndSplineSet
Validated: 1
EndChar

StartChar: f
Encoding: 102 102 23
Width: 336
VWidth: 0
Flags: W
HStem: 0.480469 21G<129.993 156.421> 352.124 95.752<28.1803 95.332 191.082 308.234> 601.844 96.9062<196.323 307.243>
VStem: 95.3311 95.752<8.66079 352.125 447.875 594.108>
LayerCount: 2
Fore
SplineSet
239.988 699.188 m 0
 244.045 699.114 247.812 698.934 251.238 698.75 c 0
 255.793 698.506 258.393 698.273 261.395 698.031 c 0
 263.266 698.301 266.319 698.519 268.21 698.519 c 0
 294.638 698.519 316.086 677.07 316.086 650.643 c 0
 316.086 650.465 316.084 650.178 316.082 650 c 0
 316.082 631.003 301.388 614.065 293.02 608.969 c 0
 284.651 603.872 280.184 603.403 276.988 602.781 c 0
 270.598 601.538 268.618 601.84 266.707 601.844 c 0
 262.886 601.854 261.17 602.062 259.145 602.219 c 0
 255.095 602.531 250.979 602.896 246.113 603.156 c 0
 236.383 603.677 224.25 603.543 214.488 601.719 c 0
 204.727 599.895 198.631 596.59 196.207 594.219 c 0
 193.783 591.848 191.082 590.026 191.082 575 c 2
 191.082 447.875 l 1
 268.207 447.875 l 2
 268.298 447.876 268.446 447.876 268.537 447.876 c 0
 294.965 447.876 316.414 426.428 316.414 400 c 0
 316.414 373.572 294.965 352.124 268.537 352.124 c 0
 268.446 352.124 268.298 352.124 268.207 352.125 c 2
 191.082 352.125 l 1
 191.082 48.6875 l 2
 191.083 48.5967 191.083 48.4482 191.083 48.3574 c 0
 191.083 21.9297 169.635 0.480469 143.207 0.480469 c 0
 116.779 0.480469 95.3311 21.9297 95.3311 48.3574 c 0
 95.3311 48.4482 95.3311 48.5967 95.332 48.6875 c 2
 95.332 352.125 l 1
 68.207 352.125 l 2
 68.1162 352.124 67.9678 352.124 67.877 352.124 c 0
 41.4492 352.124 20 373.572 20 400 c 0
 20 426.428 41.4492 447.876 67.877 447.876 c 0
 67.9678 447.876 68.1162 447.876 68.207 447.875 c 2
 95.332 447.875 l 1
 95.332 575 l 2
 95.332 609.974 108.256 642.104 129.27 662.656 c 0
 150.283 683.209 175.438 691.798 196.926 695.812 c 0
 213.042 698.823 227.82 699.406 239.988 699.188 c 0
EndSplineSet
Validated: 33
EndChar

StartChar: u
Encoding: 117 117 24
Width: 480
VWidth: 0
Flags: W
HStem: -0.0126953 100<174.053 305.957> 480.712 20G<89.9014 103.806 376.204 403.806>
VStem: 40 100.01<134.118 491.482> 340 100.01<134.59 491.47>
LayerCount: 2
Fore
SplineSet
89.2549 500.706 m 0
 89.4619 500.709 89.7979 500.712 90.0049 500.712 c 0
 117.607 500.712 140.01 478.31 140.01 450.707 c 0
 140.01 450.508 140.008 450.186 140.005 449.987 c 2
 140.005 199.987 l 2
 140.005 162.487 152.282 140.698 170.099 124.862 c 0
 187.915 109.025 213.616 99.9873 240.005 99.9873 c 0
 266.394 99.9873 292.095 109.025 309.911 124.862 c 0
 327.728 140.698 340.005 162.487 340.005 199.987 c 2
 340.005 449.987 l 2
 340.002 450.183 340 450.499 340 450.694 c 0
 340 478.297 362.402 500.699 390.005 500.699 c 0
 417.607 500.699 440.01 478.297 440.01 450.694 c 0
 440.01 450.499 440.008 450.183 440.005 449.987 c 2
 440.005 199.987 l 2
 440.007 199.821 440.009 199.553 440.009 199.387 c 0
 440.009 198.525 439.965 197.129 439.911 196.269 c 0
 438.925 135.391 414.013 83.6221 376.349 50.1436 c 0
 337.915 15.9795 288.616 -0.0126953 240.005 -0.0126953 c 0
 191.394 -0.0126953 142.095 15.9795 103.661 50.1436 c 0
 65.2275 84.3066 40.0049 137.487 40.0049 199.987 c 2
 40.0049 449.987 l 2
 40.002 450.186 40 450.508 40 450.707 c 0
 40 477.898 62.0664 500.298 89.2549 500.706 c 0
EndSplineSet
Validated: 1
EndChar

StartChar: j
Encoding: 106 106 25
Width: 210
VWidth: 0
Flags: W
HStem: 480.725 20G<120.023 133.928> 554.999 120.001<73.8282 166.426>
VStem: 60.127 120<568.7 661.299> 70.1221 100.01<-97.2607 491.495>
LayerCount: 2
Fore
SplineSet
180.127 615 m 0xe0
 180.127 581.862 153.264 554.999 120.127 554.999 c 0
 86.9902 554.999 60.127 581.862 60.127 615 c 0
 60.127 648.137 86.9902 675 120.127 675 c 0
 153.264 675 180.127 648.137 180.127 615 c 0xe0
119.377 500.719 m 0
 119.584 500.722 119.92 500.725 120.127 500.725 c 0
 147.729 500.725 170.132 478.322 170.132 450.72 c 0
 170.132 450.521 170.13 450.198 170.127 450 c 2
 170.127 -75 l 2
 170.127 -110.417 157.985 -143.172 136.658 -165.875 c 0
 115.331 -188.578 86.833 -200.379 59.0332 -202.906 c 0
 3.43457 -207.961 -56.9053 -177.029 -77.3105 -115.812 c 0
 -78.7949 -111.471 -80 -104.223 -80 -99.6348 c 0
 -80 -72.0312 -57.5977 -49.6299 -29.9951 -49.6299 c 0
 -9.9375 -49.6299 11.3691 -65.1113 17.5645 -84.1875 c 0
 22.1592 -97.9707 36.8193 -104.539 49.9707 -103.344 c 0
 56.5459 -102.746 60.8604 -100.484 63.752 -97.4062 c 0
 66.6436 -94.3281 70.127 -89.583 70.127 -75 c 2
 70.127 450 l 2
 70.124 450.198 70.1221 450.521 70.1221 450.72 c 0xd0
 70.1221 477.911 92.1885 500.311 119.377 500.719 c 0
EndSplineSet
Validated: 33
EndChar

StartChar: copyright
Encoding: 169 169 26
Width: 641
VWidth: 0
Flags: W
HStem: 456.406 99.875<211.961 370.772>
VStem: 40.8115 99.9365<214.725 387.67>
LayerCount: 2
Fore
SplineSet
286.123 556.281 m 0
 287.625 556.285 289.121 556.275 290.623 556.25 c 0
 333.188 556.269 375.895 546.13 413.436 525.938 c 0
 496.943 483.224 543.325 388.298 540.561 296.5 c 0
 540.551 294.894 540.426 293.3 540.248 291.75 c 0
 539.884 245.167 526.934 198.449 502.812 158.562 c 1
 534.02 127.815 564.491 96.2559 595.748 65.5625 c 1
 614.379 44.5244 644.738 26.8896 641.467 -5.3125 c 1
 640.059 -44.6035 587.256 -66.0186 558.873 -38.8125 c 0
 517.27 2.94824 475.191 44.2998 433.779 86.25 c 1
 358.285 36.0635 254.145 29.2598 173.029 71.3438 c 1
 91.4033 110.652 42.5029 199.736 40.8115 288.719 c 1
 39.6406 295.088 39.7754 301.559 40.9668 307.812 c 1
 40.499 342.573 49.3223 377.611 62.0918 409.688 c 0
 97.6328 498.831 191.504 556.059 286.123 556.281 c 0
288.717 456.406 m 0
 226.862 456.571 164.564 416.927 148.062 355.562 c 1
 140.662 338.12 142.651 318.462 140.748 300 c 0
 140.75 299.979 140.746 299.958 140.748 299.938 c 0
 142.331 282.809 140.674 264.487 146.904 248.469 c 1
 162.049 184.691 226.681 142.179 290.623 143.75 c 1
 354.565 142.179 419.197 184.691 434.342 248.469 c 1
 440.695 264.773 438.854 283.354 440.562 300.688 c 1
 439.236 316.308 440.235 332.915 435.373 347.375 c 1
 422.355 410.512 360.928 455.019 297.842 456.094 c 0
 294.808 456.297 291.759 456.398 288.717 456.406 c 0
EndSplineSet
Validated: 33
EndChar

StartChar: ordfeminine
Encoding: 170 170 27
Width: 590
VWidth: 0
Flags: W
HStem: -20 150<20.2637 169.736 220.264 369.736 420.264 569.736> 180 150<20.2637 169.736 220.264 369.736 420.264 569.736> 380 150<20.2637 169.736 220.264 369.736 420.264 569.736>
VStem: 20 150<-19.7363 129.736 180.264 329.736 380.264 529.736> 220 150<-19.7363 129.736 180.264 329.736 380.264 529.736> 420 150<-19.7363 129.736 180.264 329.736 380.264 529.736>
CounterMasks: 1 fc
LayerCount: 2
Fore
SplineSet
20 490 m 2
 20 530 20 530 60 530 c 2
 130 530 l 2
 170 530 170 530 170 490 c 2
 170 420 l 2
 170 380 170 380 130 380 c 2
 60 380 l 2
 20 380 20 380 20 420 c 2
 20 490 l 2
420 490 m 2
 420 530 420 530 460 530 c 2
 530 530 l 2
 570 530 570 530 570 490 c 2
 570 420 l 2
 570 380 570 380 530 380 c 2
 460 380 l 2
 420 380 420 380 420 420 c 2
 420 490 l 2
220 490 m 2
 220 530 220 530 260 530 c 2
 330 530 l 2
 370 530 370 530 370 490 c 2
 370 420 l 2
 370 380 370 380 330 380 c 2
 260 380 l 2
 220 380 220 380 220 420 c 2
 220 490 l 2
20 290 m 2
 20 330 20 330 60 330 c 2
 130 330 l 2
 170 330 170 330 170 290 c 2
 170 220 l 2
 170 180 170 180 130 180 c 2
 60 180 l 2
 20 180 20 180 20 220 c 2
 20 290 l 2
420 290 m 2
 420 330 420 330 460 330 c 2
 530 330 l 2
 570 330 570 330 570 290 c 2
 570 220 l 2
 570 180 570 180 530 180 c 2
 460 180 l 2
 420 180 420 180 420 220 c 2
 420 290 l 2
220 290 m 2
 220 330 220 330 260 330 c 2
 330 330 l 2
 370 330 370 330 370 290 c 2
 370 220 l 2
 370 180 370 180 330 180 c 2
 260 180 l 2
 220 180 220 180 220 220 c 2
 220 290 l 2
20 90 m 2
 20 130 20 130 60 130 c 2
 130 130 l 2
 170 130 170 130 170 90 c 2
 170 20 l 2
 170 -20 170 -20 130 -20 c 2
 60 -20 l 2
 20 -20 20 -20 20 20 c 2
 20 90 l 2
420 90 m 2
 420 130 420 130 460 130 c 2
 530 130 l 2
 570 130 570 130 570 90 c 2
 570 20 l 2
 570 -20 570 -20 530 -20 c 2
 460 -20 l 2
 420 -20 420 -20 420 20 c 2
 420 90 l 2
220 90 m 2
 220 130 220 130 260 130 c 2
 330 130 l 2
 370 130 370 130 370 90 c 2
 370 20 l 2
 370 -20 370 -20 330 -20 c 2
 260 -20 l 2
 220 -20 220 -20 220 20 c 2
 220 90 l 2
EndSplineSet
Validated: 1
EndChar

StartChar: guillemotleft
Encoding: 171 171 28
Width: 666
VWidth: 0
Flags: W
HStem: 104.987 37.5127<230.819 286.512 464.912 520.604> 329.987 100<245.087 506.337> 404.982 100.01<9.22965 114.681>
VStem: 150.712 175<-2.25203 103.911> 425.712 175<-2.25203 103.911>
LayerCount: 2
Fore
SplineSet
325.712 55 m 0x98
 325.712 6.7002 286.512 -32.5 238.212 -32.5 c 0
 189.912 -32.5 150.712 6.7002 150.712 55 c 0
 150.712 103.3 189.912 142.5 238.212 142.5 c 0
 286.512 142.5 325.712 103.3 325.712 55 c 0x98
600.712 55 m 0
 600.712 6.7002 561.512 -32.5 513.212 -32.5 c 0
 464.912 -32.5 425.712 6.7002 425.712 55 c 0
 425.712 103.3 464.912 142.5 513.212 142.5 c 0
 561.512 142.5 600.712 103.3 600.712 55 c 0
50.7119 504.987 m 2
 150.712 504.987 l 2
 170.604 504.987 191.856 489.671 198.149 470.8 c 2
 211.743 429.987 l 1
 568.056 429.987 l 2xd8
 570.214 430.331 573.739 430.61 575.925 430.61 c 0
 588.705 430.61 605.788 422.701 614.056 412.956 c 0
 614.09 412.913 614.146 412.843 614.181 412.8 c 0
 614.215 412.757 614.271 412.687 614.306 412.644 c 0
 614.815 412.028 615.613 411.006 616.087 410.362 c 0
 616.694 409.563 617.633 408.234 618.181 407.394 c 0
 622.713 400.494 626.391 388.194 626.391 379.939 c 0
 626.391 373.127 623.818 362.705 620.649 356.675 c 1
 548.149 139.175 l 2
 541.856 120.303 520.604 104.987 500.712 104.987 c 0
 250.712 104.987 l 2
 230.819 104.987 209.567 120.303 203.274 139.175 c 2
 130.649 357.019 l 2
 128.657 360.868 126.459 367.462 125.743 371.737 c 2
 114.681 404.987 l 1
 50.7119 404.987 l 2
 50.5166 404.984 50.2002 404.982 50.0049 404.982 c 0
 22.4023 404.982 0 427.385 0 454.987 c 0
 0 482.59 22.4023 504.992 50.0049 504.992 c 0xb8
 50.2002 504.992 50.5166 504.99 50.7119 504.987 c 2
245.087 329.987 m 1
 286.743 204.987 l 1
 464.681 204.987 l 1
 506.337 329.987 l 1
 245.087 329.987 l 1
EndSplineSet
Validated: 5
EndChar
